<svg viewBox="0 0 360 360" fill="none" xmlns="http://www.w3.org/2000/svg">
<path d="M336.769 156.769L203.231 23.231L202.027 40.545L319.443 157.984L336.769 156.769Z" fill="white"/>
<path d="M23.231 203.231L156.791 336.791L157.995 319.443L40.579 202.016L23.231 203.231Z" fill="white"/>
<path class="social-icon-main" d="M342.034 162.034L317.284 163.778L196.223 42.728L197.955 17.967L180 0L0 180L17.955 197.955L42.727 196.211L163.788 317.273L162.044 342.057L180 360L360 180L342.034 162.034ZM193.027 209.07C195.952 211.601 198.224 220.545 198.224 224.651V261.011H177.468H156.69C156.69 261.011 156.746 248.681 156.69 240.232C128.261 246.352 120.33 224.651 120.33 224.651C115.132 214.267 109.946 209.07 109.946 209.07C99.562 202.904 109.946 203.873 109.946 203.873C120.33 203.873 125.527 214.256 125.527 214.256C134.64 229.736 150.862 227.238 156.69 224.641C156.69 219.443 158.962 211.59 161.888 209.059C139.197 206.505 120.319 193.478 120.319 167.502C120.319 141.525 125.539 136.339 130.725 131.142C129.679 128.577 125.325 119.116 130.882 105.166C130.882 105.166 141.086 105.166 151.481 120.747C156.633 115.595 172.259 115.55 177.457 115.55C182.644 115.55 198.281 115.595 203.423 120.747C213.807 105.166 224.044 105.166 224.044 105.166C229.602 119.116 225.259 128.577 224.201 131.142C229.398 136.34 234.585 141.526 234.585 167.502C234.585 193.478 215.73 206.516 193.027 209.07Z" fill="white"/>
</svg>
