<svg viewBox="0 0 360 360" fill="none" xmlns="http://www.w3.org/2000/svg">
<path d="M336.769 156.769L203.231 23.231L202.027 40.545L319.443 157.984L336.769 156.769Z" fill="white"/>
<path class="social-icon-main" d="M342.034 162.034L317.284 163.778L196.223 42.728L197.955 17.967L180 0L0 180L17.955 197.955L42.727 196.211L163.788 317.273L162.044 342.057L180 360L360 180L342.034 162.034ZM154.429 233.258H125.471V146.115H154.429V233.258ZM139.95 134.224H139.77C130.05 134.224 123.761 127.53 123.761 119.161C123.761 110.611 130.241 104.108 140.141 104.108C150.041 104.108 156.15 110.61 156.341 119.161C156.33 127.53 150.041 134.224 139.95 134.224ZM258.862 233.258H229.905V186.638C229.905 174.926 225.719 166.939 215.235 166.939C207.236 166.939 202.465 172.328 200.384 177.536C199.619 179.392 199.428 182.002 199.428 184.601V233.268H170.46C170.46 233.268 170.843 154.305 170.46 146.126H199.429V158.467C203.265 152.538 210.161 144.078 225.529 144.078C244.576 144.078 258.875 156.532 258.875 183.307V233.257H258.862V233.258Z" fill="white"/>
<path d="M23.231 203.231L156.791 336.791L157.995 319.443L40.579 202.016L23.231 203.231Z" fill="white"/>
</svg>
