<svg viewBox="0 0 304 68" fill="#FFFFFF" xmlns="http://www.w3.org/2000/svg">
<path d="M57.2127 0H74.2761V24.913L96.2839 0H115.5L93.2486 27.806L123.04 67.25L104.891 67.211L83.6008 39.568L75.859 46.54L75.9403 67H57.2127V0Z" />
<path d="M35.6234 21.522L45.9237 13.795C45.9237 13.795 36.6302 1 23.3859 1C10.0574 1 1.57586 11.261 1.57586 19.59C1.57586 31.048 12.8708 37.174 25.567 41.078C35.9085 44.259 34.168 53.971 26.1713 53.971C14.8241 53.971 11.3903 45.666 11.3903 45.666L0 52.547C0 52.547 7.55508 68 24.76 68C40.6892 68 47.5407 56.089 47.5407 48.604C47.5407 37.62 36.0259 29.977 30.4933 28.807C11.6774 24.824 18.3914 16.909 18.7206 16.362C19.0839 15.758 25.8089 10.295 35.6234 21.522Z" />
<path d="M157.085 1C138.512 1 123.459 15.998 123.459 34.502C123.459 53.002 138.512 68 157.085 68C175.656 68 190.71 53.002 190.71 34.502C190.71 15.997 175.656 1 157.085 1ZM157.085 52.686C147.004 52.686 138.831 44.544 138.831 34.501C138.831 24.456 147.004 16.313 157.085 16.313C167.168 16.313 175.339 24.456 175.339 34.501C175.338 44.544 167.168 52.686 157.085 52.686Z" />
<path d="M200.837 1H218.194L218.075 54H241.179L241.217 67.932L200.746 68L200.837 1Z" />
<path d="M250.933 15L250.994 1H303.239L275.336 51.523L304 51.68V68H251.21L278.066 14.885" />
</svg>
