<svg viewBox="0 0 360 360" fill="none" xmlns="http://www.w3.org/2000/svg">
<path d="M336.769 156.769L203.231 23.231L202.027 40.545L319.443 157.984L336.769 156.769Z" fill="white"/>
<path class="social-icon-main" d="M342.034 162.034L317.284 163.778L196.223 42.728L197.955 17.967L180 0L0 180L17.955 197.955L42.727 196.211L163.8 317.272L162.056 342.056L180 360L360 180L342.034 162.034ZM253.113 135.563C252.472 136.643 249.175 140.4 245.666 143.843C239.704 149.76 239.389 150.402 239.389 155.352C239.389 162.991 235.778 178.91 232.156 187.628C225.451 203.985 211.085 220.884 196.718 229.389C176.501 241.326 149.569 244.351 126.9 237.354C119.351 234.98 106.358 228.961 106.358 227.881C106.358 227.555 110.296 227.128 115.088 227.015C125.089 226.801 135.102 224.011 143.607 219.062L149.356 215.619L142.764 213.369C133.392 210.14 124.989 202.716 122.863 195.719C122.222 193.457 122.435 193.344 128.398 193.344L134.574 193.233L129.354 190.757C123.178 187.629 117.541 182.364 114.774 176.987C112.749 173.117 110.207 163.33 110.949 162.565C111.163 162.25 113.402 162.891 115.955 163.746C123.29 166.435 124.258 165.793 119.994 161.271C112.017 153.092 109.565 140.931 113.401 129.422L115.213 124.258L122.233 131.256C136.599 145.352 153.53 153.745 172.891 156.219L178.212 156.861L177.898 151.585C176.942 137.927 185.345 125.44 198.654 120.603C203.548 118.882 211.85 118.668 217.284 120.175C219.422 120.817 223.461 122.976 226.329 124.911L231.55 128.466L237.298 126.632C240.493 125.665 244.746 124.056 246.67 122.976C248.481 122.009 250.078 121.469 250.078 121.795C250.078 123.629 246.14 129.861 242.845 133.304C238.367 138.141 239.65 138.58 248.695 135.34C254.07 133.515 254.183 133.515 253.113 135.563Z" fill="white"/>
<path d="M23.231 203.231L156.791 336.791L157.995 319.443L40.579 202.016L23.231 203.231Z" fill="white"/>
</svg>
