<?xml version="1.0" encoding="utf-8"?>
<!-- Generator: Adobe Illustrator 16.0.3, SVG Export Plug-In . SVG Version: 6.00 Build 0)  -->
<!DOCTYPE svg PUBLIC "-//W3C//DTD SVG 1.1//EN" "http://www.w3.org/Graphics/SVG/1.1/DTD/svg11.dtd">
<svg version="1.1" id="Layer_1" xmlns="http://www.w3.org/2000/svg" xmlns:xlink="http://www.w3.org/1999/xlink" x="0px" y="0px"
	 width="400px" height="60px" viewBox="0 0 400 60" enable-background="new 0 0 400 60" xml:space="preserve">
<g>
	<polygon fill="#FFFFFF" points="8.657,2.618 22.409,38.665 36.772,0 50.532,38.665 65.137,2.618 73.788,2.618 50.186,59.969 
		36.604,21.76 22.445,60 0,2.618 	"/>
	<path fill="#FFFFFF" d="M103.02,29.339c0-7.59,2.724-14.108,8.179-19.558c5.426-5.449,11.949-8.176,19.567-8.176
		c7.526,0,13.979,2.747,19.357,8.242c5.406,5.503,8.108,12.101,8.108,19.808c0,7.753-2.71,14.328-8.143,19.726
		c-5.447,5.435-12.025,8.146-19.735,8.146c-6.819,0-12.943-2.405-18.362-7.231C106.013,44.968,103.02,37.979,103.02,29.339
		 M111.061,29.428c0,5.947,1.959,10.853,5.885,14.696c3.899,3.834,8.402,5.751,13.508,5.751c5.549,0,10.225-1.96,14.025-5.858
		c3.814-3.955,5.716-8.771,5.716-14.455c0-5.745-1.878-10.559-5.642-14.44c-3.737-3.916-8.373-5.875-13.894-5.875
		c-5.495,0-10.132,1.959-13.924,5.875C112.953,18.982,111.061,23.755,111.061,29.428"/>
	<polygon fill="#FFFFFF" points="209.28,2.618 209.28,48.902 224.809,48.902 224.809,56.55 201.31,56.55 201.31,2.618 	"/>
	<path fill="#FFFFFF" d="M267.986,29.339c0-7.59,2.721-14.108,8.17-19.558c5.431-5.449,11.953-8.176,19.576-8.176
		c7.524,0,13.976,2.747,19.363,8.242c5.399,5.503,8.101,12.101,8.101,19.808c0,7.753-2.712,14.328-8.141,19.726
		c-5.449,5.435-12.027,8.146-19.737,8.146c-6.823,0-12.943-2.405-18.372-7.231C270.969,44.968,267.986,37.979,267.986,29.339
		 M276.026,29.428c0,5.947,1.958,10.853,5.881,14.696c3.897,3.834,8.406,5.751,13.514,5.751c5.535,0,10.217-1.96,14.027-5.858
		c3.811-3.955,5.715-8.771,5.715-14.455c0-5.745-1.884-10.559-5.648-14.44c-3.745-3.916-8.369-5.875-13.886-5.875
		c-5.499,0-10.14,1.959-13.926,5.875C277.918,18.982,276.026,23.755,276.026,29.428"/>
	<polygon fill="#FFFFFF" points="374.891,28.357 360.349,2.618 369.409,2.618 379.511,20.884 390.108,2.618 399.241,2.618 
		384.022,28.357 400,56.55 391.064,56.55 379.368,35.908 367.33,56.55 358.293,56.55 	"/>
</g>
</svg>